<svg xmlns="http://www.w3.org/2000/svg" viewBox="0 0 30 30"><g fill="#1E90FF"><path d="M26.633 19.99c-.496-.139-.514-.157-.651-.66-.12-.44-.844-.44-.964 0-.137.503-.155.521-.651.66a.506.506 0 00-.367.489c0 .228.15.428.367.489.496.139.514.157.651.66.06.22.257.372.482.372s.422-.152.482-.372c.137-.503.155-.521.651-.66a.506.506 0 00.367-.489.506.506 0 00-.367-.489zM20.367 4.471c.067.019.104.03.112.03.008.019.02.056.04.125.06.22.256.374.481.374s.422-.153.482-.374c.018-.07.031-.106.03-.115.018-.008.054-.021.121-.04A.51.51 0 0022 3.979a.51.51 0 00-.367-.492 2.129 2.129 0 00-.112-.03 1.118 1.118 0 01-.04-.125c-.12-.443-.843-.443-.963 0-.018.069-.031.106-.03.115-.018.008-.054.02-.121.04a.51.51 0 00-.367.492c0 .23.15.43.367.492zM3.5 10C4.327 10 5 9.327 5 8.5S4.327 7 3.5 7 2 7.673 2 8.5 2.673 10 3.5 10zm0-2a.5.5 0 110 1 .5.5 0 010-1z"/><circle cx="10" cy="24" r="1"/><path d="M24.149 25.262a5.953 5.953 0 0 1-8.408 0c-2.238-2.239-2.293-5.822-.208-8.154.332 3.301 3.33 5.894 6.969 5.894a.5.5 0 1 0 0-1c-3.31 0-6.002-2.468-6.002-5.502a.49.49 0 0 0-.03-.153 1.99 1.99 0 0 0 .427-.74 6.93 6.93 0 0 0 4.16 1.39 6.924 6.924 0 0 0 4.912-2.03 6.954 6.954 0 0 0 0-9.823.5.5 0 1 0-.707.707 5.953 5.953 0 0 1 0 8.408c-2.239 2.238-5.822 2.293-8.154.208 3.301-.332 5.894-3.33 5.894-6.969a.5.5 0 1 0-1 0c0 3.31-2.468 6.002-5.502 6.002a.49.49 0 0 0-.153.03 1.991 1.991 0 0 0-.741-.427c2.04-2.718 1.832-6.6-.64-9.072a6.954 6.954 0 0 0-9.822 0 .5.5 0 1 0 .707.707 5.953 5.953 0 0 1 8.408 0c2.238 2.239 2.293 5.822.208 8.154-.332-3.301-3.33-5.894-6.969-5.894a.5.5 0 1 0 0 1c3.31 0 6.002 2.468 6.002 5.502a.49.49 0 0 0 .03.153 1.99 1.99 0 0 0-.427.74c-2.718-2.04-6.6-1.83-9.072.64a6.954 6.954 0 0 0 0 9.823.499.499 0 0 0 .707 0 .5.5 0 0 0 0-.707 5.953 5.953 0 0 1 0-8.408c2.24-2.238 5.823-2.292 8.154-.208-3.301.332-5.894 3.33-5.894 6.969a.5.5 0 1 0 1 0c0-3.31 2.468-6.002 5.502-6.002a.49.49 0 0 0 .153-.03c.21.193.463.337.741.427-2.04 2.718-1.832 6.6.64 9.072A6.924 6.924 0 0 0 19.945 28a6.924 6.924 0 0 0 4.911-2.03.5.5 0 1 0-.707-.708zM14 15c0-.551.449-1 1-1s1 .449 1 1-.449 1-1 1-1-.449-1-1z"/></g></svg>